0
SECTION
2
HEADER
9
$INSUNITS
70
4
9
$ACADVER
1
AC1014
9
$HANDSEED
5
FFFF
0
ENDSEC
0
SECTION
2
TABLES
0
TABLE
2
VPORT
5
8
100
AcDbSymbolTable
0
ENDTAB
0
TABLE
2
LTYPE
5
5
100
AcDbSymbolTable
0
LTYPE
5
14
100
AcDbSymbolTableRecord
100
AcDbLinetypeTableRecord
2
BYBLOCK
70
0
0
LTYPE
5
15
100
AcDbSymbolTableRecord
100
AcDbLinetypeTableRecord
2
BYLAYER
70
0
0
ENDTAB
0
TABLE
2
LAYER
5
2
100
AcDbSymbolTable
70
2
0
LAYER
5
50
100
AcDbSymbolTableRecord
100
AcDbLayerTableRecord
2
0
70
0
6
CONTINUOUS
0
ENDTAB
0
TABLE
2
STYLE
5
3
100
AcDbSymbolTable
70
1
0
STYLE
5
11
100
AcDbSymbolTableRecord
100
AcDbTextStyleTableRecord
2
STANDARD
70
0
0
ENDTAB
0
TABLE
2
VIEW
5
6
100
AcDbSymbolTable
70
0
0
ENDTAB
0
TABLE
2
UCS
5
7
100
AcDbSymbolTable
70
0
0
ENDTAB
0
TABLE
2
APPID
5
9
100
AcDbSymbolTable
70
2
0
APPID
5
12
100
AcDbSymbolTableRecord
100
AcDbRegAppTableRecord
2
ACAD
70
0
0
ENDTAB
0
TABLE
2
DIMSTYLE
5
A
100
AcDbSymbolTable
70
1
0
ENDTAB
0
TABLE
2
BLOCK_RECORD
5
1
100
AcDbSymbolTable
70
1
0
BLOCK_RECORD
5
1F
100
AcDbSymbolTableRecord
100
AcDbBlockTableRecord
2
*MODEL_SPACE
0
BLOCK_RECORD
5
1B
100
AcDbSymbolTableRecord
100
AcDbBlockTableRecord
2
*PAPER_SPACE
0
ENDTAB
0
ENDSEC
0
SECTION
2
BLOCKS
0
BLOCK
5
20
100
AcDbEntity
100
AcDbBlockBegin
2
*MODEL_SPACE
0
ENDBLK
5
21
100
AcDbEntity
100
AcDbBlockEnd
0
BLOCK
5
1C
100
AcDbEntity
100
AcDbBlockBegin
2
*PAPER_SPACE
0
ENDBLK
5
1D
100
AcDbEntity
100
AcDbBlockEnd
0
ENDSEC
0
SECTION
2
ENTITIES
0
LWPOLYLINE
5
100
100
AcDbEntity
8
0
100
AcDbPolyline
90
12
70
1
43
0.0
10
0
20
0
10
101.8
20
0
10
91.599999999999994
20
0
10
91.599999999999994
20
5.0999999999999996
10
101.8
20
5.0999999999999996
10
101.8
20
0
10
101.8
20
52.200000000000003
10
96.700000000000003
20
52.200000000000003
10
96.700000000000003
20
44.500000000000014
10
101.8
20
44.500000000000014
10
101.8
20
52.200000000000003
10
0
20
52.200000000000003
0
CIRCLE
5
101
100
AcDbEntity
8
0
100
AcDbCircle
10
91.599999999999994
20
5.0999999999999996
30
0
40
1.9999999999999987
210
0
220
0
230
1
0
LWPOLYLINE
5
102
100
AcDbEntity
8
0
100
AcDbPolyline
90
4
70
1
43
0.0
10
0
20
0
10
10.300000000000001
20
0
10
10.300000000000001
20
5.0999999999999988
10
0
20
5.0999999999999988
0
CIRCLE
5
103
100
AcDbEntity
8
0
100
AcDbCircle
10
10.300000000000001
20
5.0999999999999988
30
0
40
2
210
0
220
0
230
1
0
LWPOLYLINE
5
104
100
AcDbEntity
8
0
100
AcDbPolyline
90
4
70
1
43
0.0
10
0
20
52.200000000000003
10
5.0999999999999996
20
52.200000000000003
10
5.0999999999999996
20
44.500000000000014
10
0
20
44.500000000000014
0
CIRCLE
5
105
100
AcDbEntity
8
0
100
AcDbCircle
10
5.0999999999999996
20
44.500000000000014
30
0
40
2.0000000000000013
210
0
220
0
230
1
0
CIRCLE
5
106
100
AcDbEntity
8
0
100
AcDbCircle
10
96.700000000000003
20
44.500000000000014
30
0
40
1.9999999999999929
210
0
220
0
230
1
0
LINE
5
107
100
AcDbEntity
8
0
100
AcDbLine
10
100.17670853548015
20
52.200000000000003
30
0
11
100.17670853548015
21
36.600000000000009
31
0
0
LINE
5
108
100
AcDbEntity
8
0
100
AcDbLine
10
1.6328026679574492
20
52.200000000000003
30
0
11
1.6328026679574492
21
36.600000963551352
31
0
0
LWPOLYLINE
5
109
100
AcDbEntity
8
0
100
AcDbPolyline
90
4
70
1
43
0.0
10
1.6328026679574492
20
36.600000963551352
10
6.9328026679574499
20
36.600000963551352
10
6.9328026679574499
20
26.600000963551356
10
1.6328026679574492
20
26.600000963551356
0
LWPOLYLINE
5
110
100
AcDbEntity
8
0
100
AcDbPolyline
90
4
70
1
43
0.0
10
100.17670853548015
20
36.600000000000009
10
94.876708535480162
20
36.600000000000009
10
94.876708535480162
20
26.600000000000005
10
100.17670853548015
20
26.600000000000005
0
ENDSEC
0
SECTION
2
OBJECTS
0
DICTIONARY
5
C
100
AcDbDictionary
3
ACAD_GROUP
350
D
3
ACAD_MLINESTYLE
350
17
0
DICTIONARY
5
D
100
AcDbDictionary
0
DICTIONARY
5
1A
330
C
100
AcDbDictionary
0
DICTIONARY
5
17
100
AcDbDictionary
0
ENDSEC
0
EOF
